HIERARCHY
ROOT hip
{
  OFFSET 0 0 0
  CHANNELS 6 Xposition Yposition Zposition Zrotation Yrotation Xrotation
  JOINT abdomen
  {
    OFFSET 0 20.6881 -0.73152
    CHANNELS 3 Zrotation Xrotation Yrotation
    JOINT chest
    {
      OFFSET 0 11.7043 -0.48768
      CHANNELS 3 Zrotation Xrotation Yrotation
      JOINT neck
      {
        OFFSET 0 22.1894 -2.19456
        CHANNELS 3 Zrotation Xrotation Yrotation
        JOINT head
        {
          OFFSET -0.24384 7.07133 1.2192
          CHANNELS 3 Zrotation Xrotation Yrotation
          JOINT leftEye
          {
            OFFSET 4.14528 8.04674 8.04672
            CHANNELS 3 Zrotation Xrotation Yrotation
            End Site
            {
              OFFSET 1 0 0
            }
          }
          JOINT rightEye
          {
            OFFSET -3.6576 8.04674 8.04672
            CHANNELS 3 Zrotation Xrotation Yrotation
            End Site
            {
              OFFSET 1 0 0
            }
          }
        }
      }
      JOINT rCollar
      {
        OFFSET -2.68224 19.2634 -4.8768
        CHANNELS 3 Zrotation Xrotation Yrotation
        JOINT rShldr
        {
          OFFSET -8.77824 -1.95073 1.46304
          CHANNELS 3 Zrotation Xrotation Yrotation
          JOINT rForeArm
          {
            OFFSET -28.1742 -1.7115 0.48768
            CHANNELS 3 Zrotation Xrotation Yrotation
            JOINT rHand
            {
              OFFSET -22.5879 0.773209 7.07136
              CHANNELS 3 Zrotation Xrotation Yrotation
              JOINT rThumb1
              {
                OFFSET -1.2192 -0.487915 3.41376
                CHANNELS 3 Zrotation Xrotation Yrotation
                JOINT rThumb2
                {
                  OFFSET -3.37035 -0.52449 3.41376
                  CHANNELS 3 Zrotation Xrotation Yrotation
                  End Site
                  {
                    OFFSET -1.78271 -1.18214 1.43049
                  }
                }
              }
              JOINT rIndex1
              {
                OFFSET -7.75947 0.938293 5.60832
                CHANNELS 3 Zrotation Xrotation Yrotation
                JOINT rIndex2
                {
                  OFFSET -2.54057 -0.884171 1.56538
                  CHANNELS 3 Zrotation Xrotation Yrotation
                  End Site
                  {
                    OFFSET -1.62519 -0.234802 1.16502
                  }
                }
              }
              JOINT rMid1
              {
                OFFSET -8.24714 1.18213 3.41376
                CHANNELS 3 Zrotation Xrotation Yrotation
                JOINT rMid2
                {
                  OFFSET -3.10165 -0.590103 1.0647
                  CHANNELS 3 Zrotation Xrotation Yrotation
                  End Site
                  {
                    OFFSET -2.48547 -0.328903 0.83742
                  }
                }
              }
              JOINT rRing1
              {
                OFFSET -8.82822 0.546677 1.51678
                CHANNELS 3 Zrotation Xrotation Yrotation
                JOINT rRing2
                {
                  OFFSET -2.60934 -0.819778 -0.0198488
                  CHANNELS 3 Zrotation Xrotation Yrotation
                  End Site
                  {
                    OFFSET -2.33842 -0.294052 0.168128
                  }
                }
              }
              JOINT rPinky1
              {
                OFFSET -8.27202 -0.0477905 -0.4584
                CHANNELS 3 Zrotation Xrotation Yrotation
                JOINT rPinky2
                {
                  OFFSET -1.82734 -0.647385 -0.700984
                  CHANNELS 3 Zrotation Xrotation Yrotation
                  End Site
                  {
                    OFFSET -1.69225 -0.51767 -0.607171
                  }
                }
              }
            }
          }
        }
      }
      JOINT lCollar
      {
        OFFSET 2.68224 19.2634 -4.8768
        CHANNELS 3 Zrotation Xrotation Yrotation
        JOINT lShldr
        {
          OFFSET 8.77824 -1.95073 1.46304
          CHANNELS 3 Zrotation Xrotation Yrotation
          JOINT lForeArm
          {
            OFFSET 28.1742 -1.7115 0.48768
            CHANNELS 3 Zrotation Xrotation Yrotation
            JOINT lHand
            {
              OFFSET 22.5879 0.773209 7.07136
              CHANNELS 3 Zrotation Xrotation Yrotation
              JOINT lThumb1
              {
                OFFSET 1.2192 -0.487915 3.41376
                CHANNELS 3 Zrotation Xrotation Yrotation
                JOINT lThumb2
                {
                  OFFSET 3.37035 -0.52449 3.41376
                  CHANNELS 3 Zrotation Xrotation Yrotation
                  End Site
                  {
                    OFFSET 1.78271 -1.18214 1.43049
                  }
                }
              }
              JOINT lIndex1
              {
                OFFSET 7.75947 0.938293 5.60832
                CHANNELS 3 Zrotation Xrotation Yrotation
                JOINT lIndex2
                {
                  OFFSET 2.54057 -0.884171 1.56538
                  CHANNELS 3 Zrotation Xrotation Yrotation
                  End Site
                  {
                    OFFSET 1.62519 -0.234802 1.16502
                  }
                }
              }
              JOINT lMid1
              {
                OFFSET 8.24714 1.18213 3.41376
                CHANNELS 3 Zrotation Xrotation Yrotation
                JOINT lMid2
                {
                  OFFSET 3.10165 -0.590103 1.0647
                  CHANNELS 3 Zrotation Xrotation Yrotation
                  End Site
                  {
                    OFFSET 2.48547 -0.328903 0.83742
                  }
                }
              }
              JOINT lRing1
              {
                OFFSET 8.82822 0.546677 1.51678
                CHANNELS 3 Zrotation Xrotation Yrotation
                JOINT lRing2
                {
                  OFFSET 2.60934 -0.819778 -0.0198488
                  CHANNELS 3 Zrotation Xrotation Yrotation
                  End Site
                  {
                    OFFSET 2.33842 -0.294052 0.168128
                  }
                }
              }
              JOINT lPinky1
              {
                OFFSET 8.27202 -0.0477905 -0.4584
                CHANNELS 3 Zrotation Xrotation Yrotation
                JOINT lPinky2
                {
                  OFFSET 1.82734 -0.647385 -0.700984
                  CHANNELS 3 Zrotation Xrotation Yrotation
                  End Site
                  {
                    OFFSET 1.69225 -0.51767 -0.607171
                  }
                }
              }
            }
          }
        }
      }
    }
  }
  JOINT rButtock
  {
    OFFSET -8.77824 4.35084 1.2192
    CHANNELS 3 Zrotation Xrotation Yrotation
    JOINT rThigh
    {
      OFFSET 0 -1.70687 -2.19456
      CHANNELS 3 Zrotation Xrotation Yrotation
      JOINT rShin
      {
        OFFSET 0 -36.8199 0.73152
        CHANNELS 3 Zrotation Xrotation Yrotation
        JOINT rFoot
        {
          OFFSET 0.73152 -45.1104 -5.12064
          CHANNELS 3 Zrotation Xrotation Yrotation
          End Site
          {
            OFFSET -1.1221 -3.69964 12.103
          }
        }
      }
    }
  }
  JOINT lButtock
  {
    OFFSET 8.77824 4.35084 1.2192
    CHANNELS 3 Zrotation Xrotation Yrotation
    JOINT lThigh
    {
      OFFSET 0 -1.70687 -2.19456
      CHANNELS 3 Zrotation Xrotation Yrotation
      JOINT lShin
      {
        OFFSET 0 -36.8199 0.73152
        CHANNELS 3 Zrotation Xrotation Yrotation
        JOINT lFoot
        {
          OFFSET -0.73152 -45.1104 -5.12064
          CHANNELS 3 Zrotation Xrotation Yrotation
          End Site
          {
            OFFSET 1.1221 -3.69964 12.103
          }
        }
      }
    }
  }
}
MOTION
Frames:	5
Frame Time:	0.03333
-6.7551 56.0544 36.6916 -146.365062 72.090953 -146.430058 2.515367 13.321332 -0.477876 1.166841 -12.299694 16.651961 9.127604 20.721971 83.733229 -30.183005 -3.33185 -59.610128 -0.000454 -0.0 0.004172 -0.001078 0.0 -0.000492 -48.780447 -86.435627 -70.442932 -177.682161 1.564125 -133.999989 -36.927111 -54.040881 81.817081 -33.762318 -78.732469 -41.872499 16.055536 -15.915145 -0.229396 -131.554369 -17.876833 118.408506 -19.171201 24.114393 13.380767 -179.808658 -33.660007 107.169807 37.45952 -72.53707 11.711936 -163.455225 -4.710225 143.189709 -31.708144 -66.108964 -46.283356 13.017876 29.791965 0.901987 -131.399631 -19.915616 -128.961062 -145.561919 7.769767 -140.941739 150.120427 21.701179 -155.219679 -89.798533 86.353664 137.033585 -119.942508 -15.268556 -8.402592 -172.584043 12.332306 -153.156366 1.661558 1.632478 -0.279166 5.786433 6.753814 -5.917199 145.522273 -6.585048 -118.76615 0.271281 19.315546 5.285964 36.034868 51.723716 -29.831407 36.635009 56.254671 -31.247941 -0.00091 0.009085 -0.001714 -6.908859 29.712017 -4.679156 4.031391 -9.540469 3.770307 147.665561 13.399546 144.087376 0.002856 -0.000535 0.001428 -19.116591 -27.563012 143.164788 30.883694 -78.8835 -65.476418 -64.50539 -46.700721 -131.338113 0.000169 0.001094 -0.000217 65.358599 -47.296139 58.918539 34.937563 76.956634 41.949118 -150.498073 2.435873 66.42
-6.7776000000000005 56.010000000000005 36.708 -146.657733 72.232148 -146.674733 2.381368 13.306854 0.0 1.078822 -12.317967 16.148008 -11.157605 19.628763 -54.869131 35.55249 0.716436 81.540988 0.000818 0.0 0.002848 -0.000116 0.0 -0.005073 3.191987 -25.838833 -5.074958 57.6064 2.782828 -25.679349 12.352718 67.39656 105.066758 -17.370558 -45.853254 -12.068316 -171.637269 -9.319042 89.949697 -93.347467 11.32482 36.696709 -152.105917 -18.556033 121.368576 -87.706167 56.541773 69.341809 -151.477808 17.842128 137.53935 -34.701716 54.939025 29.474308 -145.121631 0.809767 -179.382148 -146.604168 -47.380674 -168.921154 -162.364502 72.063681 -150.902894 -19.948223 -35.275383 -20.501797 0.122501 0.726954 -0.162518 133.171777 -32.637638 -133.734537 -124.76426 22.166598 48.202097 161.428312 68.15242 -143.900696 169.572745 -7.253542 -89.929967 -60.583224 -67.329017 -46.754995 4.705339 7.224716 -2.853197 178.523578 -34.123204 -106.407668 -173.122984 -66.297744 -137.613619 13.736238 36.293828 -10.951884 67.608903 -72.074693 84.373811 150.975774 -0.783698 -176.328651 145.173005 12.067735 141.822855 41.698918 -48.479487 42.349862 0.007053 -0.000815 0.007053 -17.222055 -26.871934 -92.760762 -81.959795 14.138703 -5.827175 29.484752 -10.122653 71.953489 0.000445 -0.000865 -0.000573 65.158977 -47.527294 71.147032 51.621328 66.918684 -9.759743 -79.177644 23.652101 2.14623
-6.8117 55.964999999999996 36.7341 -146.959312 72.411748 -146.91972 0.828175 12.884796 34.876931 -4.828679 -11.179912 -19.158222 -11.981816 22.350205 -70.813353 37.168649 9.884495 95.029842 0.003279 -0.0 -0.000453 0.003914 0.0 0.004202 -155.504243 -3.514605 161.838262 -55.960312 21.869015 15.995959 76.50919 -38.560374 -123.356478 -45.175452 32.484486 27.227862 -99.394583 37.102214 57.492446 11.43647 -25.605668 24.395049 -10.633489 15.088697 6.910968 -170.348545 -23.323681 109.358247 0.04629 -0.138821 -0.026536 -42.067521 58.559058 36.101578 -145.09848 -1.521195 -178.650353 -156.20003 12.425378 179.29967 -46.801098 -48.62463 -45.559898 2.221889 -3.025724 -1.536279 -4.225573 -44.097116 8.515771 -69.080954 -0.538238 1.916214 -173.911799 1.938125 -56.152437 -152.110825 -37.104196 -139.45765 68.482399 37.953571 -35.659803 127.219226 -22.290651 -84.269596 1.162004 1.860697 -0.669933 19.24822 33.320332 -14.282412 170.282075 -36.723112 -145.34069 172.397627 -31.343085 -143.686419 0.016223 -1.322902 0.41747 -6.778706 31.045134 -4.96886 11.66435 -23.13053 11.070305 147.234649 12.830088 143.868192 -0.001604 0.001013 -0.000401 -18.403108 -25.912587 -8.609764 50.84748 65.817392 -10.696801 -97.178748 49.827711 -0.886729 179.846894 75.75148 0.118009 -141.770419 5.398694 -3.348486 -6.321261 73.788496 -23.680799 102.926729 13.011056 -29.084963
-6.8567 55.9171 36.77 -147.284342 72.604262 -147.191248 1.577477 8.606513 169.572732 -2.942951 7.220293 -153.383798 -5.191091 14.119145 -10.285288 19.534681 -20.37871 39.516037 -0.003373 -0.0 0.000382 -0.003051 -0.0 0.003654 2.530435 -18.881191 -3.793785 -108.598708 -12.442915 -160.134937 -175.017972 -44.446913 -67.109831 -17.359095 -53.175404 -15.172979 -171.6035 -9.286129 89.950451 -147.017727 6.389731 75.625347 -0.68973 1.107984 0.392687 54.985649 -48.770196 11.939083 -160.34066 -5.644128 143.088469 5.204929 -5.863618 -0.315912 -0.008615 3.557573 1.116481 -156.766718 -25.081328 174.792191 8.369407 26.426565 7.361814 28.330444 75.277348 5.820603 153.590637 -75.693421 178.260646 -25.875278 -9.99734 48.408618 157.62409 -65.217292 -74.369039 -136.296314 -52.262812 -125.280949 -114.538667 -50.245252 -55.721674 55.861397 22.328335 -10.532233 83.732432 42.331002 -69.990151 167.221506 -15.028064 -114.424247 151.477868 17.84203 -137.539044 161.153937 1.243579 -142.250716 72.350539 72.975298 -90.217823 80.940256 83.199897 -89.868715 -12.251002 41.425229 -10.279826 85.713504 -53.662602 84.495439 179.977132 75.751339 0.018816 156.382043 43.527983 -180.0 78.260735 -86.280805 100.815509 -154.665534 28.013641 -117.622646 -0.0 -6.5e-05 -0.000607 67.128828 -46.891206 -20.61152 -79.953868 2.964054 -0.801195 152.465084 29.316055 -90.481286
-6.9203 55.8677 36.8159 -147.696963 72.779782 -147.561394 1.801996 13.406948 -0.344893 1.271093 -12.377943 16.43877 2.969419 14.19596 34.019286 -8.692527 -23.492937 -10.407363 -0.002193 0.0 -0.000347 -0.001548 -0.0 0.004295 -152.135309 14.084164 157.564156 -49.820662 1.105373 29.010757 34.012563 4.715521 -158.945605 -86.292014 49.429271 70.430466 -169.320163 -7.000612 89.922176 -71.438282 1.447179 22.480085 14.584196 -26.169926 -5.605971 10.429999 5.896807 -0.482658 1.280532 -3.803307 -0.678951 91.948514 -78.578692 62.962792 -0.021948 -1.72547 -0.540408 11.707199 -36.410248 -4.398665 -133.876385 -15.639735 -131.334857 3.739674 2.279002 -1.141177 6.251135 26.219343 -7.467158 -47.667586 0.954693 -59.57664 23.335218 -54.875468 -65.986488 4.609119 38.844786 -4.465819 174.390737 -12.052603 -89.859574 77.899258 7.045741 -25.241444 50.386107 40.826513 -40.024702 -6.600153 -0.028585 2.798716 166.119354 -24.039819 -145.077114 -2.756399 1.156838 -0.50937 145.122868 1.120745 179.48187 148.155836 -43.201955 170.54997 1.178121 -2.985171 1.093072 147.785046 13.372823 144.098048 179.998684 75.750427 -0.0 156.38563 45.509491 -0.0 30.384145 82.386011 90.527922 -46.475508 11.533899 -134.0251 0.004606 -0.000785 0.004606 64.846319 -47.503729 58.387922 -20.999812 75.548897 -45.172584 118.062088 45.059464 -46.902185
